
        <svg xmlns="http://www.w3.org/2000/svg" xmlns:xlink="http://www.w3.org/1999/xlink" version="1.1" width="3192" 
        height="3192" viewBox="0 0 3192 3192">
			<rect fill="#5a287d" width="3192" height="3192"/>
			<g transform="scale(9.6) translate(10, 10)">
				<defs id="SvgjsDefs3063"><linearGradient id="SvgjsLinearGradient3070"><stop id="SvgjsStop3071" stop-color="#8f5e25" offset="0"></stop><stop id="SvgjsStop3072" stop-color="#fbf4a1" offset="0.5"></stop><stop id="SvgjsStop3073" stop-color="#8f5e25" offset="1"></stop></linearGradient></defs><g id="SvgjsG3064" featureKey="rootContainer" transform="matrix(6.188118811881188,0,0,6.188118811881188,0,0.06187707185745239)" fill="url(#SvgjsLinearGradient3070)"><path xmlns="http://www.w3.org/2000/svg" d="M25.25 50.49A25.25 25.25 0 1 1 50.5 25.24a25.28 25.28 0 0 1-25.25 25.25zm0-50.14a24.89 24.89 0 1 0 24.89 24.89A24.92 24.92 0 0 0 25.25.35z"></path></g><g id="SvgjsG3065" featureKey="symbolFeature-0" transform="matrix(0.20842338850328246,0,0,0.20842338850328246,91.05042232959441,56.67253217879531)" fill="#ffffff"><path xmlns="http://www.w3.org/2000/svg" d="M191.6,298.8c15.7-17,31.3-33.9,47.1-51.1c-6.6-8.8-10-18.4-8.2-29.4c1.3-8.2,5-15.1,11.1-20.7c11.6-10.8,29-12.7,42.6-4.6  c15.4,9.1,20.5,24.7,14.9,45.7c11.1,6.5,22.2,13,33.8,19.7c6.7-8.1,15-13.3,25.5-14.3c10.5-1,19.7,2.3,27.9,9.2  c14.1-12.3,28-24.5,41.8-36.5c-9.8-23.6-5.9-41.1,11.2-51.6c15.2-9.3,34.5-6.1,46.1,7.6c11.3,13.2,11.2,33.2-0.2,46.4  c-13.1,15.1-31.3,16.4-51.9,3.5c-13.8,12.1-27.7,24.2-41.5,36.3c9.1,22,7,36.6-6.8,48.4c-11.7,10-28.7,11.3-41.9,3.2  c-14.9-9.1-19.6-23.8-14.4-45.4c-10.5-6.1-21.1-12.4-31.8-18.4c-0.8-0.5-2.6-0.3-3.3,0.4c-19.1,15.5-28.2,16.7-49.2,6.1  c-15.6,16.9-31.3,33.9-47.1,51.1c7.1,9.4,10.4,19.7,7.8,31.4c-1.9,8.7-6.5,15.7-13.5,21c-14.1,10.8-34,9.4-46.6-3  c-12.9-12.6-14.5-32.5-3.8-47C152.6,291.1,171,288.1,191.6,298.8z M477.7,196c0.1-10.7-8.7-19.7-19.5-19.9  c-10.7-0.1-19.8,8.7-20,19.4c-0.2,10.9,8.9,20.2,19.8,20.2C468.7,215.7,477.6,206.8,477.7,196z M285.7,223.9  c0-10.7-8.9-19.7-19.7-19.7c-10.7,0-19.7,8.8-19.8,19.6c-0.1,10.9,9.1,20.1,19.9,20C276.9,243.6,285.7,234.6,285.7,223.9z   M342.3,279.5c-0.2,10.7,8.5,19.9,19.2,20.2c10.8,0.3,20.1-8.7,20.3-19.7c0.1-10.7-8.7-19.7-19.5-19.9  C351.5,260,342.4,268.8,342.3,279.5z M189.7,327.9c0-10.7-8.9-19.7-19.7-19.7c-10.7-0.1-19.7,8.8-19.8,19.5  c-0.1,10.9,9.1,20.1,19.9,20C180.9,347.6,189.7,338.6,189.7,327.9z"></path><path xmlns="http://www.w3.org/2000/svg" d="M493.9,432c0,44.3,0,88.7,0,133c0,13-6,18.9-18.9,18.9c-11.8,0-23.7,0-35.5,0c-11,0-17.4-6.5-17.4-17.4  c0-89.7,0-179.3,0-269c0-11,6.5-17.4,17.4-17.4c12.3-0.1,24.7-0.1,37,0c11,0,17.4,6.5,17.4,17.4C494,342.3,493.9,387.2,493.9,432z   M438.5,296.5c0,7.1,0,13.6,0,20c-0.1,35-0.2,70-0.2,104.9c0,47.1,0.1,94.3,0,141.4c0,3.7,1,4.9,4.8,4.8c10-0.2,20-0.3,30,0  c3.9,0.1,4.7-1.3,4.7-4.9c-0.1-80.1,0-160.3,0-240.4c0-8.6,0-17.2,0-26C464.4,296.5,451.6,296.5,438.5,296.5z"></path><path xmlns="http://www.w3.org/2000/svg" d="M230.1,455.5c0-36.2,0-72.3,0-108.5c0-13,6-18.9,18.9-18.9c11.8,0,23.7,0,35.5,0c11,0.1,17.4,6.5,17.4,17.4  c0,73.7,0,147.3,0,221c0,11-6.5,17.4-17.4,17.4c-12.3,0-24.7,0-37,0c-11,0-17.4-6.5-17.4-17.4C230,529.5,230.1,492.5,230.1,455.5z   M246.2,344.5c0,9.9,0,19.4,0,28.9c0,38.8,0,77.6,0,116.4c0,24.3,0.2,48.6,0,73c0,4.1,1.3,5.1,5.2,5c9.5-0.2,19-0.3,28.5,0  c4.5,0.2,5.9-1.1,5.9-5.8c-0.1-63.8,0-127.6,0-191.4c0-8.6,0-17.2,0-26.1C272.5,344.5,259.7,344.5,246.2,344.5z"></path><path xmlns="http://www.w3.org/2000/svg" d="M397.9,480.5c0,28.3,0,56.7,0,85c0,12.3-6.1,18.4-18.4,18.5c-12,0-24,0-36,0c-11,0-17.4-6.5-17.4-17.4c0-57.7,0-115.3,0-173  c0-11,6.5-17.4,17.4-17.4c12.3-0.1,24.7-0.1,37,0c11,0,17.4,6.5,17.4,17.4C398,422.5,397.9,451.5,397.9,480.5z M342.5,392.5  c0,7.8,0,14.9,0,22.1c0,49.6,0,99.3-0.2,148.9c0,3.3,1.1,4.3,4.3,4.2c9.8-0.2,19.7-0.3,29.5,0c4.3,0.1,5.7-0.9,5.7-5.5  c-0.1-47.8,0-95.6,0-143.4c0-8.8,0-17.5,0-26.4C368.3,392.5,355.6,392.5,342.5,392.5z"></path><path xmlns="http://www.w3.org/2000/svg" d="M205.9,504c0,20.7,0,41.3,0,62c0,11.6-6.3,17.9-17.9,17.9c-12.2,0-24.3,0-36.5,0c-11,0-17.4-6.5-17.4-17.4  c0-41.7,0-83.3,0-125c0-11,6.5-17.4,17.4-17.4c12.3-0.1,24.7-0.1,37,0c11,0,17.4,6.5,17.4,17.4C206,462.3,205.9,483.2,205.9,504z   M150.5,440.5c0,7.5,0,14.4,0,21.4c0,33.8,0,67.6-0.2,101.4c0,3.6,1.3,4.5,4.7,4.4c9.8-0.2,19.7-0.2,29.5,0c4.1,0.1,5.4-1.1,5.4-5.3  c-0.1-32,0-63.9,0-95.9c0-8.6,0-17.2,0-26.1C176.4,440.5,163.7,440.5,150.5,440.5z"></path></g><g id="SvgjsG3066" featureKey="nameFeature-0" transform="matrix(0.8594018518001266,0,0,0.8594018518001266,53.52492297825964,187.68717941757743)" fill="#ffffff"><path d="M9.28 12 l0 28 l-6.4 0 l0 -28 l6.4 0 z M28.44 12 l6.4 0 l0 28 l-6.4 0 l-7 -14.56 l0 14.56 l-6.4 0 l0 -28 l6.4 0 l7 14.6 l0 -14.6 z M51.6 28.48 l4.6 -16.48 l6.4 0 l-7.8 28 l-6.4 0 l-7.8 -28 l6.4 0 z M85.96000000000001 18.44 l-11.2 0 l0 4.36 l8.04 0 l0 6.4 l-8.04 0 l0 4.4 l11.2 0 l0 6.4 l-17.6 0 l0 -28 l17.6 0 l0 6.44 z M104.36 22.8 c2.76 0 5 2.24 5 5 l0 7.24 c0 2.76 -2.24 4.96 -5 4.96 l-12.64 0 l0 -6.4 l11.2 0 l0 -4.36 l-6.24 0 c-2.76 0 -4.96 -2.24 -4.96 -5 l0 -7.24 c0 -2.76 2.24 -5 4.96 -5 l12.68 0 l0 6.44 l-11.24 0 l0 4.36 l6.24 0 z M115.12 12 l19.84 0 l0 6.44 l-6.72 0 l0 21.56 l-6.4 0 l0 -21.56 l-6.72 0 l0 -6.44 z M157.32 12 l6.4 0 l0 28 l-6.4 0 l0 -12.52 l-4.08 9.84 l-2.04 0 l-4.08 -9.84 l0 12.52 l-6.4 0 l0 -28 l6.4 0 l5.08 12.28 z M183.64 12 l7.8 28 l-6.4 0 l-1.12 -4.04 l-6.92 0 l-1.12 4.04 l-6.4 0 l7.8 -28 l6.36 0 z M178.79999999999998 29.439999999999998 l3.32 0 l-1.68 -5.96 z M192.39999999999998 12 l19.84 0 l0 6.44 l-6.72 0 l0 21.56 l-6.4 0 l0 -21.56 l-6.72 0 l0 -6.44 z M235.59999999999997 18.44 l-11.2 0 l0 4.36 l8.04 0 l0 6.4 l-8.04 0 l0 4.4 l11.2 0 l0 6.4 l-17.6 0 l0 -28 l17.6 0 l0 6.44 z"></path></g>
			</g>
		</svg>
	